<svg width="0" height="0" class="hidden">
  <symbol version="1.1" id="twitter-icon" xmlns="http://www.w3.org/2000/svg" xmlns:xlink="http://www.w3.org/1999/xlink" x="0px" y="0px" xml:space="preserve" viewBox="0 0 511.588 511.588">
    <g>
      <g>
        <path d="M508.508,93.804c-2.794-2.708-6.795-3.601-10.44-2.334l-17.252,5.953c10.162-12.297,17.66-25.14,21.608-37.315
			c1.146-3.549,0.104-7.48-2.647-10.006c-2.768-2.543-6.786-3.263-10.275-1.805c-24.194,10.145-45.603,18.979-62.629,24.264
			c-0.633,0.2-1.284,0.113-1.935-0.252c-13.572-7.602-47.547-25.062-71.68-24.784c-61.032,1.119-110.696,53.274-110.696,116.267
			v3.445c-89.869-17.399-139.533-43.251-193.31-99.666l-8.4-8.817l-5.589,10.821C6.071,126.043,26.768,176.653,60.881,210.74
			c-15.117-2.317-26.095-7.185-35.337-15.247c-3.549-3.072-8.583-3.454-12.54-0.937c-3.896,2.482-5.675,7.125-4.417,11.55
			c11.481,40.622,42.227,73.98,74.683,93.913c-15.681-0.017-28.585-1.762-41.559-10.101c-3.775-2.43-8.687-2.178-12.21,0.607
			c-3.497,2.777-4.842,7.463-3.35,11.672c15.82,44.431,45.403,67.801,94.425,73.624c-25.201,14.735-57.899,26.381-108.952,27.448
			c-4.981,0.104-9.39,3.341-10.986,8.044C-0.958,416,0.5,421.033,4.344,424.122c31.024,25.01,100.612,39.945,186.151,39.945
			c153.123,0,277.695-136.253,277.695-303.729v-2.942c19.812-9.468,34.929-28.151,42.921-53.274
			C512.274,100.46,511.276,96.503,508.508,93.804z"></path>
      </g>
    </g>
    <g></g>
    <g></g>
    <g></g>
    <g></g>
    <g></g>
    <g></g>
    <g></g>
    <g></g>
    <g></g>
    <g></g>
    <g></g>
    <g></g>
    <g></g>
    <g></g>
    <g></g>
  </symbol>
  <symbol version="1.1" id="whatsapp-icon" xmlns="http://www.w3.org/2000/svg" xmlns:xlink="http://www.w3.org/1999/xlink" x="0px" y="0px" xml:space="preserve" viewBox="0 0 507.249 507.249">
    <g>
      <g>
        <g>
          <path d="M254.674,0.05C116.258,0.05,3.643,112.439,3.643,250.586c0,42.823,11.507,85.538,33.305,123.761L0,507.199
				l135.252-36.461c39.432,21.546,80.653,32.919,119.422,32.919c136.914,0,252.575-115.897,252.575-253.071
				C507.249,112.439,393.946,0.05,254.674,0.05z M254.674,461.69c-36.663,0-74.324-11.163-108.938-32.281l-4.365-2.677
				l-82.516,21.244l22.478-79.83l-2.946-4.591C56.941,330.173,45.61,291.11,45.61,250.586c0-115.007,93.788-208.569,209.064-208.569
				c116.132,0,210.608,93.562,210.608,208.569C465.282,366.986,370.805,461.69,254.674,461.69z"></path>
          <path d="M299.502,313.353c-3.785,4.919-10.265,6.841-16.132,4.784c-14.814-5.204-65.293-26.322-92.957-79.603
				c-2.736-5.296-1.998-11.6,1.863-16.073l19.909-23.032l-22.855-53.105l-15.553-0.848c-0.193-0.017-0.394-0.017-0.596-0.017
				c-2.552,0-5.002,0.898-6.925,2.577c-6.387,5.548-17.584,17.022-20.849,31.559c-5.128,22.83,3.374,50.831,23.921,78.848
				c13.539,18.466,54.75,74.651,132.868,96.734c18.608,5.263,35.412,3.257,49.882-6.001c9.292-5.943,15.99-15.738,18.373-26.876
				l2.51-11.709l-52.937-24.173L299.502,313.353z"></path>
          <path d="M254.673,58.8c-106.026,0-192.277,86.033-192.277,191.79c0,37.292,10.408,73.224,30.116,103.894l7.034,10.937
				l-16.627,59.023l61.138-15.738l10.441,6.379c31.954,19.506,66.602,29.814,100.176,29.814
				c106.874,0,193.821-87.166,193.821-194.308C448.494,144.833,361.547,58.8,254.673,58.8z M389.371,314.104l-2.51,11.717
				c-3.307,15.486-12.699,29.15-25.734,37.493c-12.045,7.697-25.189,11.558-39.29,11.558c-7.789,0-15.872-1.175-24.215-3.534
				c-83.666-23.661-127.446-83.347-141.832-102.962c-23.46-31.987-32.969-64.823-26.767-92.454
				c4.323-19.221,18.281-33.658,26.213-40.549c5.389-4.692,12.372-7.017,19.464-6.664l15.704,0.856
				c6.32,0.344,11.793,4.18,14.294,10.005l22.889,53.525c2.459,5.775,1.402,12.565-2.703,17.307L206.05,232.2
				c24.014,44.989,66.283,63.983,81.24,69.498l19.75-25.608c4.751-6.136,12.985-8.15,20.01-4.919l53.08,24.467
				C387.197,298.895,390.999,306.491,389.371,314.104z"></path>
        </g>
      </g>
    </g>
    <g></g>
    <g></g>
    <g></g>
    <g></g>
    <g></g>
    <g></g>
    <g></g>
    <g></g>
    <g></g>
    <g></g>
    <g></g>
    <g></g>
    <g></g>
    <g></g>
    <g></g>
  </symbol>
  <symbol version="1.1" id="youtube-icon" xmlns="http://www.w3.org/2000/svg" xmlns:xlink="http://www.w3.org/1999/xlink" x="0px" y="0px" xml:space="preserve" viewBox="0 0 310 310">
    <g id="XMLID_822_">
      <path id="XMLID_823_" d="M297.917,64.645c-11.19-13.302-31.85-18.728-71.306-18.728H83.386c-40.359,0-61.369,5.776-72.517,19.938
		C0,79.663,0,100.008,0,128.166v53.669c0,54.551,12.896,82.248,83.386,82.248h143.226c34.216,0,53.176-4.788,65.442-16.527
		C304.633,235.518,310,215.863,310,181.835v-53.669C310,98.471,309.159,78.006,297.917,64.645z M199.021,162.41l-65.038,33.991
		c-1.454,0.76-3.044,1.137-4.632,1.137c-1.798,0-3.592-0.484-5.181-1.446c-2.992-1.813-4.819-5.056-4.819-8.554v-67.764
		c0-3.492,1.822-6.732,4.808-8.546c2.987-1.814,6.702-1.938,9.801-0.328l65.038,33.772c3.309,1.718,5.387,5.134,5.392,8.861
		C204.394,157.263,202.325,160.684,199.021,162.41z"></path>
    </g>
    <g></g>
    <g></g>
    <g></g>
    <g></g>
    <g></g>
    <g></g>
    <g></g>
    <g></g>
    <g></g>
    <g></g>
    <g></g>
    <g></g>
    <g></g>
    <g></g>
    <g></g>
  </symbol>
  <symbol version="1.1" id="linkedin-icon" xmlns="http://www.w3.org/2000/svg" xmlns:xlink="http://www.w3.org/1999/xlink" x="0px" y="0px" xml:space="preserve" viewBox="0 0 512.003 512.003">
    <g transform="translate(0 -1)">
      <g>
        <g>
          <path d="M68.762,5.195h-0.06c-18.261,0-35.482,7.1-48.478,19.985C7.185,38.1,0,55.243,0,73.453
				c-0.009,18.611,7.33,36.053,20.625,49.092c12.894,12.629,30.481,19.721,47.531,19.311c0.495,0.009,0.99,0.017,1.493,0.017
				c17.092,0,34.014-6.963,46.618-19.251c13.286-12.945,20.625-30.319,20.668-48.922c0.043-18.193-7.074-35.362-20.019-48.358
				C103.979,12.363,86.878,5.212,68.762,5.195z"></path>
          <path d="M102.403,158.941H33.411c-13.713,0-24.875,11.511-24.875,25.651v298.615c0,13.841,11.725,25.532,25.6,25.532h68.267
				c13.875,0,25.6-11.46,25.6-25.011V184.541C128.003,170.666,116.279,158.941,102.403,158.941z"></path>
          <path d="M393.645,150.408h-17.98c-33.135,0-64.922,14.114-85.53,37.427v-11.827c0-8.457-8.619-17.067-17.067-17.067h-85.333
				c-7.893,0-17.067,6.997-17.067,16.017v318.404c0,9.054,8.994,15.369,17.067,15.377l93.867,0.026
				c8.073,0,17.067-6.315,17.067-15.377V309.435c0-27.75,20.574-49.724,46.839-50.022c13.355-0.299,25.975,4.966,35.422,14.43
				c7.808,7.808,11.605,19.208,11.605,34.859v183.04c0,8.457,8.619,17.067,17.067,17.067h85.333c8.448,0,17.067-8.61,17.067-17.067
				V271.496C512.003,203.596,460.009,150.408,393.645,150.408z"></path>
        </g>
      </g>
    </g>
    <g></g>
    <g></g>
    <g></g>
    <g></g>
    <g></g>
    <g></g>
    <g></g>
    <g></g>
    <g></g>
    <g></g>
    <g></g>
    <g></g>
    <g></g>
    <g></g>
    <g></g>
  </symbol>
  <symbol version="1.1" id="facebook-icon" xmlns="http://www.w3.org/2000/svg" xmlns:xlink="http://www.w3.org/1999/xlink" x="0px" y="0px" xml:space="preserve" viewBox="0 0 512 512">
    <g>
      <g>
        <g>
          <path d="M469.333,0H42.667C19.14,0,0,19.14,0,42.667v426.667C0,492.86,19.14,512,42.667,512h196.267V341.333h-68.267v-102.4
				h68.267v-42.667c0-57.489,44.672-106.197,101.7-110.908l94.566-0.026v102.4h-85.333c-4.702,0-8.533,3.831-8.533,8.533v42.667
				h85.333v102.4h-85.333V512h128C492.86,512,512,492.86,512,469.333V42.667C512,19.14,492.86,0,469.333,0z"></path>
          <path d="M409.6,256h-85.333v-59.733c0-14.114,11.486-25.6,25.6-25.6h68.267V102.4h-76.8C293.794,106.351,256,147.593,256,196.267
				V256h-68.267v68.267H256V512h68.267V324.267H409.6V256z"></path>
        </g>
      </g>
    </g>
    <g></g>
    <g></g>
    <g></g>
    <g></g>
    <g></g>
    <g></g>
    <g></g>
    <g></g>
    <g></g>
    <g></g>
    <g></g>
    <g></g>
    <g></g>
    <g></g>
    <g></g>
  </symbol>
</svg>